<svg id="Capa_1" data-name="Capa 1" xmlns="http://www.w3.org/2000/svg" viewBox="0 0 60 60"><title>Mesa de trabajo 2 copia</title><path d="M19,34a13.21,13.21,0,0,0,0,2c.6,3-.94,5.08-2.88,7.07s-3.84,4.14-5.71,6.26c-1.23,1.4-1.21,2.71-.07,3.82a2.52,2.52,0,0,0,3.81-.2c3.21-3.41,6.38-6.85,9.48-10.37a3.25,3.25,0,0,0-.3-4.62C22.08,36.76,20.73,35.57,19,34Z"/><path d="M39.13,41.41a5.67,5.67,0,1,0,11.34-.2c-.07-3.37-2.38-5.52-5.85-5.46A5.36,5.36,0,0,0,39.13,41.41Z"/><path d="M45.57,28.91c-2.43-.64-4.83-1.42-7.21-2.25a2.56,2.56,0,0,1-1.08-1.24c-.72-1.36-1.35-2.77-2-4.16A41.57,41.57,0,0,0,32.72,15a4.43,4.43,0,0,0-3.23-1.53c-3.92-.18-7.85-.05-11.77-.09a3.4,3.4,0,0,0-3.07,1.87c-1.34,2.15-2.64,4.31-4,6.45a2,2,0,0,0,.56,3,1.93,1.93,0,0,0,3-.36,34.2,34.2,0,0,0,2.46-3.76c1-1.73,2-3.09,4.33-2.61a15,15,0,0,0,2.56,0c-1.43,2.22-2.61,4.2-3.93,6.09-2.49,3.56-2.21,5.82,1.1,8.7,2.32,2,4.63,4,6.82,6.16a3.14,3.14,0,0,1,.74,2.23c-.24,3.19-.64,6.36-1,9.54A2.74,2.74,0,0,0,29,53.79a2.54,2.54,0,0,0,3.18-1,2.76,2.76,0,0,0,.47-1.32c.45-4,1-8,1.2-12.05a5.09,5.09,0,0,0-1.43-3.26c-1.71-1.83-3.7-3.41-5.74-5.24,1.45-2.25,2.84-4.47,4.33-6.62.16-.22.87-.06,1.32-.08a6.61,6.61,0,0,0,4.85,6.89c2.42.69,4.81,1.5,7.22,2.21,1.63.47,2.73-.09,3-1.6A2.16,2.16,0,0,0,45.57,28.91Z"/><path d="M37.29,6a4.4,4.4,0,0,0-4.55,4.51,4.36,4.36,0,0,0,4.35,4.55A4.53,4.53,0,1,0,37.29,6Z"/></svg>