<svg id="Capa_1" data-name="Capa 1" xmlns="http://www.w3.org/2000/svg" viewBox="0 0 60 60"><title>Mesa de trabajo 2 copia 2</title><path d="M14.13,32.18A3.44,3.44,0,1,0,21,32.06a3.24,3.24,0,0,0-3.55-3.31A3.24,3.24,0,0,0,14.13,32.18Z"/><path d="M30.65,20c-1.47-.11-2.72-.26-4-.26a1.88,1.88,0,0,0-1.08.69c-2,2.11-3.89,4.25-5.87,6.35-.75.78-1.56,1.71-2.78.74a2.21,2.21,0,0,1-.14-3.38q3.33-4,6.79-7.85a2.21,2.21,0,0,1,1.47-.73c4.42.09,8.89-.6,13.23.92,2.79,1,5,2.39,5.94,5.46.75,2.41,2,4.65,2.89,7a3.39,3.39,0,0,1,0,2.69,3.07,3.07,0,0,1-2.52.74c-2.5-.34-5-.89-7.46-1.47C36,30.64,35,30,35.23,28.63a2.06,2.06,0,0,1,2.67-1.78c1.25.22,2.49.47,4.09.77-.51-1.41-1-2.62-1.57-4.31l-1.34,2.9c-2-.16-4.33-.92-5.18,1.94-.42,1.45.34,2.7,2.59,4.13-.33.75-.66,1.52-1,2.37,1.47,1.34,2.94,2.71,4.43,4.06a2.38,2.38,0,0,1,.56,3.11c-2,4.11-3.89,8.23-5.85,12.34a2.58,2.58,0,0,1-3.41,1.13,2.27,2.27,0,0,1-1-3.24c1.25-2.78,2.57-5.54,3.93-8.28,1.6-3.21,1.31-2.59-.93-4.47-1.49-1.24-3.07-2.4-4.66-3.52a5.33,5.33,0,0,1-1.88-6.86C27.94,26,29.25,23.07,30.65,20Z"/><path d="M26,35.9l3.6,3.2a36.52,36.52,0,0,1-8.49,11.52c-1.34,1.26-2.59,2.64-3.9,3.93s-2.92,1.35-4,.21-.75-2.43.45-3.7c3-3.14,6-6.2,8.8-9.48A44.58,44.58,0,0,0,26,35.9Z"/><path d="M39.15,14a4.75,4.75,0,0,1-4.68-4.79A4.93,4.93,0,0,1,39,4.44c2.45-.08,4.92,2.47,5,5.12A4.74,4.74,0,0,1,39.15,14Z"/></svg>