<svg id="Capa_1" data-name="Capa 1" xmlns="http://www.w3.org/2000/svg" viewBox="0 0 60 60"><title>Mesa de trabajo 2 copia 3</title><path d="M14.69,44.86a5.53,5.53,0,0,1,5.59,5.57,5.64,5.64,0,0,1-5.46,5.77,5.87,5.87,0,0,1-5.77-5.55A5.65,5.65,0,0,1,14.69,44.86Z"/><path d="M37.62,8.33a4.58,4.58,0,0,1-9.15,0,4.58,4.58,0,1,1,9.15,0Z"/><path d="M50.48,10.34c-.92-1.17-2.07-1.11-3.19-.1S45,12.11,43.94,13.12a5.67,5.67,0,0,1-4.26,1.66c-6.32-.12-12.65-.07-19-.07A3,3,0,0,0,19,15c-2.29,1.85-4.56,3.73-6.66,5.78a2.38,2.38,0,0,0-.06,2.35,2.8,2.8,0,0,0,2.52.38,9.67,9.67,0,0,0,2.7-2.16c2.13-2.1,4.43-3.55,7.73-2.38-.41,1.51-.78,3.05-1.25,4.56-1.51,4.85-3.08,9.68-4.6,14.53A2.19,2.19,0,0,0,20.57,41a2.21,2.21,0,0,0,3.05-1.26,16.62,16.62,0,0,0,1-3c.68-2.55.67-2.55,3.56-2.11q-2.52,8.84-5,17.64c-.28,1-.75,2,.36,2.8h0c.75,1.41,2.66-.38,2.94-.76A8.94,8.94,0,0,0,28,50.76h0c.43-1.06,1-2.09,1.28-3.18C31.94,38.4,34.55,29.22,37.09,20a1.54,1.54,0,0,1,2-1.32,8.13,8.13,0,0,0,7.86-2.84,21.44,21.44,0,0,1,3-2.47C50.93,12.53,51.35,11.45,50.48,10.34Z"/></svg>