<svg id="Capa_1" data-name="Capa 1" xmlns="http://www.w3.org/2000/svg" viewBox="0 0 60 60"><title>Mesa de trabajo 2 copia 4</title><path d="M30,18.35a3.89,3.89,0,0,0,4-4,4,4,0,0,0-3.78-3.92A4.25,4.25,0,0,0,26,14.53,3.89,3.89,0,0,0,30,18.35Z"/><path d="M48.8,16.62V4.09a.91.91,0,0,0-.91-.9h-.4a.91.91,0,0,0-.91.9v12a1.89,1.89,0,0,1-1.26,1,4.32,4.32,0,0,0-2.09,1.69,2.22,2.22,0,0,1-2.17,1c-7.08,0-14.16-.05-21.24,0-1.43,0-2.54-.17-3.36-1.51A3.32,3.32,0,0,0,14.67,17c-.89-.25-1.25-.67-1.35-1.38V4.09a.9.9,0,0,0-.9-.9H12a.9.9,0,0,0-.9.9V16.63a3,3,0,0,1-.93.49C7.61,18,6.53,21.59,7.78,24a5.35,5.35,0,0,0,9.38.48,1.63,1.63,0,0,1,1.06-.69c2-.07,4,0,6.19,0V26q0,14,0,28.06c0,.46-.14,1,.08,1.36.5.71,1.16,1.74,1.8,1.78a3.79,3.79,0,0,0,2.33-1.33c.35-.36.3-1.2.3-1.82,0-4.42,0-8.83,0-13.25v-2l2.21.15c0,5,0,9.78,0,14.6,0,2.64.73,3.81,2.29,3.77s2.26-1.19,2.26-3.83c0-9.3,0-18.59,0-27.89,0-1.57.47-2.07,2-1.92a26.93,26.93,0,0,0,3.48,0,2,2,0,0,1,2.07,1.15,4.68,4.68,0,0,0,5,2.15,4.73,4.73,0,0,0,4.1-3.05C53.47,20.74,52.4,18.39,48.8,16.62ZM12,22.14c.2,2.16,2.17,1.27,3.61,1.48A3.13,3.13,0,0,1,10.8,25a3.8,3.8,0,0,1-1.4-5.37c1.44-2,3.88-2.11,6.3,0C14.1,20,11.76,19.63,12,22.14Zm37.8,2.5c-1.61,1.44-3.6,1.2-5.16-.75,1.46-.36,3.66.15,3.41-2.32-.19-2-1.84-1.9-3.63-1.77,2.13-2.21,4.13-2.28,5.81-.51A3.6,3.6,0,0,1,49.79,24.64Z"/></svg>