<svg id="Capa_1" data-name="Capa 1" xmlns="http://www.w3.org/2000/svg" viewBox="0 0 60 60"><title>Mesa de trabajo 2 copia 5</title><path d="M48.67,25.55a40.32,40.32,0,0,1-3.82-3.45c-4.12-4.24-9.21-6.86-14.63-9L27.41,11.5a42.62,42.62,0,0,1-5.09-2.94,9.69,9.69,0,0,0-7.1-2c-4.18.36-6.28,4-4.32,7.68a10.32,10.32,0,0,0,2.84,3c2.47,1.9,8.51,2,9.88-1.14C21.39,15,19.12,14,16.91,12.77c-1.73-.92-2-2-1.22-3.31.86.78,1.73,1.68,2.72,2.43a13.24,13.24,0,0,0,2.43,1.32c2.15,1,4.91,2.33,7.08,3.3l2.41,1.6c-2,3.44-3.87,6.81-5.82,10.14a5.21,5.21,0,0,0,2.21,7.61c3,1.47,6,3,9,4.31a1.74,1.74,0,0,1,1.2,1.93c0,3,0,6,0,9.06,0,2.12.87,3.24,2.43,3.27S42,53.27,42,51.19c0-3.46,0-6.91,0-10.36s-.4-3.83-3.58-5.12c-1.55-.62-3-1.43-4.55-2.16l5.69-10.14c1.55,1.36,2.86,2.66,4.31,3.77a1.67,1.67,0,0,1,.45,2.52,27.21,27.21,0,0,0-1.78,3.43c-.44,1.18-.55,2.48.93,3.16a2.17,2.17,0,0,0,3-1c1.11-2,2-4.18,3-6.3A2.57,2.57,0,0,0,48.67,25.55Z"/><path d="M25.54,36.77c2.26,1.06,4.1,1.87,5.89,2.78a3.86,3.86,0,0,1,.92,5.57Q28.24,49.35,24,53.48c-1.28,1.26-2.65,1.29-3.74.2s-1.11-2.49.18-3.85c2-2.14,4-4.29,6.18-6.3a2,2,0,0,0,.54-2.72C26.66,39.65,26.22,38.45,25.54,36.77Z"/><path d="M42.17,15.44a4.79,4.79,0,0,1-4.87-5.08,4.83,4.83,0,0,1,4.79-4.82,5,5,0,0,1,5,4.85A4.89,4.89,0,0,1,42.17,15.44Z"/></svg>