<svg id="Capa_1" data-name="Capa 1" xmlns="http://www.w3.org/2000/svg" viewBox="0 0 60 60"><title>Mesa de trabajo 2 copia 6</title><path d="M55.77,11.93a5.25,5.25,0,0,1-1.16,2,22.89,22.89,0,0,0-3.89,5.79,19.25,19.25,0,0,0-1.43,5.19.49.49,0,0,0,.09.36,4.49,4.49,0,0,1,1.07,4.05,14.08,14.08,0,0,1-3.21,7.48,20.55,20.55,0,0,1-6.42,4.62A2.56,2.56,0,0,1,38,41a58.27,58.27,0,0,1-9.9-9.45,53,53,0,0,0-5.72-5.91c-.58.53-1.2,1-1.75,1.59a9.1,9.1,0,0,0-2.5,4.2,2.3,2.3,0,0,0,.33,2,22.89,22.89,0,0,1,3.75,9.19,24.35,24.35,0,0,1,.3,6,2.73,2.73,0,1,1-5.46-.24,20.07,20.07,0,0,0-.4-5.58c-.25-1-.59-2.07-.89-3.09-.13,0-.17,0-.17,0A26.83,26.83,0,0,1,9.66,50a3.61,3.61,0,0,1-1.79,1.29A2.72,2.72,0,0,1,5,50.24a2.61,2.61,0,0,1,0-3.09c.71-1,1.51-1.87,2.25-2.82A18.24,18.24,0,0,0,11,34.6a.73.73,0,0,0-.11-.46,4.46,4.46,0,0,1-.83-3.5,14.54,14.54,0,0,1,2.77-7.14,18.71,18.71,0,0,1,5.27-4.34,15.59,15.59,0,0,1,1.82-.93,2.51,2.51,0,0,1,2.51.38A57.49,57.49,0,0,1,32.33,28a55.76,55.76,0,0,0,5.75,6c2-1.29,3.7-2.75,4.19-5.22A2,2,0,0,0,42,27a23.1,23.1,0,0,1-4-9.57,24.45,24.45,0,0,1-.29-6,2.75,2.75,0,0,1,2.83-2.65,2.69,2.69,0,0,1,2.62,2.84,20.93,20.93,0,0,0,.61,6.55c.21.76.48,1.51.74,2.29.09-.06.13-.07.13-.09a26.42,26.42,0,0,1,5.88-10.13A3.76,3.76,0,0,1,52.3,8.83a2.76,2.76,0,0,1,3.37,1.92c0,.1.07.19.1.28Z"/><path d="M37.17,45a4.2,4.2,0,1,1-4.69-4A4.18,4.18,0,0,1,37.17,45Z"/><path d="M23.37,14.48a4.22,4.22,0,0,1,8.44,0,4.22,4.22,0,1,1-8.44,0Z"/></svg>