<svg id="Capa_1" data-name="Capa 1" xmlns="http://www.w3.org/2000/svg" viewBox="0 0 60 60"><title>Mesa de trabajo 2 copia 7</title><path d="M14.56,11.12v4.52C12.16,16.1,12,16,12,13.83c0-2.51,0-5,0-7.53,0-2.08.06-2.12,2.55-1.81v3c0,1.75,1.42,2.62,2.82,1.55A2.39,2.39,0,0,1,20.77,9a2.6,2.6,0,0,0,1.49.3c5.19,0,10.4.24,15.57-.13,2-.15,4-1,6,.11.33.19.9,0,1.58-.08V5.73c0-1,.39-1.48,1.48-1.45s1.23.63,1.23,1.48c0,2.92,0,5.84,0,8.76,0,.93-.28,1.4-1.3,1.39s-1.41-.37-1.4-1.34c0-1.15,0-2.31,0-3.48-1.91-.53-2.94-.11-3.74,1.74-1.67,3.9-3.71,7.64-5.53,11.48a6.52,6.52,0,0,0-.64,2.63c0,8.4,0,16.81,0,25.21,0,.52.15,1.15-.08,1.55-.43.74-1,1.83-1.65,1.88a3.4,3.4,0,0,1-2.37-1.27C31,53.84,31,52.88,31,52.14c0-4.2,0-8.39,0-12.72H28.83v1.85c0,3.79,0,7.59,0,11.38,0,2-.72,3.06-2.07,3.08s-2.34-1.21-2.35-3.11c0-8.69,0-17.38,0-26.08a5.19,5.19,0,0,0-.47-2.16C22,20.44,20,16.57,18.22,12.6,17.45,10.88,16.39,10.57,14.56,11.12Zm7-.17c1.39,2.76,3,5.13,3.79,7.74,1.07,3.53,3.34,4.12,6.43,3.63.41-.06,1-.21,1.15-.5,1.81-3.54,3.56-7.12,5.42-10.87Z"/><path d="M52,8.75l2.35,1.36-2.36,1.32a21.4,21.4,0,0,1-.06,3.25,1.69,1.69,0,0,1-1.24,1.12c-.46,0-1.31-.66-1.32-1.05-.11-3.08,0-6.16,0-9.23,0-1,.65-1.43,1.48-1.17a1.93,1.93,0,0,1,1.13,1.28A19.71,19.71,0,0,1,52,8.75Z"/><path d="M8,11.44,5.7,10.11,8,8.81l.1-2c0-.79.09-1.59.13-2.35,2.31-.32,2.4-.25,2.41,1.8,0,2.74,0,5.48,0,8.22,0,1-.32,1.37-1.3,1.4S8,15.33,8,14.48Z"/><path d="M33.34,16.48a3.27,3.27,0,0,1-3.55,3.4,3.52,3.52,0,0,1-3.43-3.62A3.57,3.57,0,0,1,30,12.83,3.3,3.3,0,0,1,33.34,16.48Z"/></svg>