<svg id="Capa_1" data-name="Capa 1" xmlns="http://www.w3.org/2000/svg" viewBox="0 0 60 60"><title>Mesa de trabajo 2 copia 8</title><path d="M20.45,34.45l7.06-7.56-3.84-3.11-4.3,4.57c-1.11,1.17-2.42,1.31-3.42.38s-.8-2.29.29-3.39q3-3,5.88-6c1.26-1.29,2.77-1.44,4-.2C31.1,24,36,29,41,34a8.07,8.07,0,0,1,.7,1.2c-3.95-1.49-6.88.18-9.83,1.92-2,1.16-3.35,1-5.08-.5C24.8,34.93,24.8,34.93,20.45,34.45Z"/><path d="M41.14,19a4.65,4.65,0,0,1,4.71,4.89A4.76,4.76,0,0,1,41,28.5a4.62,4.62,0,0,1-4.67-4.91A4.58,4.58,0,0,1,41.14,19Z"/><path d="M54.64,36a33.26,33.26,0,0,0-4.4,2c-2.66,1.71-5.91,2.59-8.21-.28-.12-.16-.38-.22-.58-.32a4.62,4.62,0,0,0-1.11-.64,8.55,8.55,0,0,0-7.47,1.66c-2.27,1.61-5.09,1.67-6.54,0a5.69,5.69,0,0,0-5.66-1.87,12.56,12.56,0,0,0-4,1.68c-3.11,1.9-5,1.75-7.79-.51a15.2,15.2,0,0,0-3.5-1.57c-.18,1.54-.51,2.54,1.15,2.66a2.77,2.77,0,0,1,1.53,1,6.22,6.22,0,0,0,7,1.53,20.22,20.22,0,0,0,3.42-1.78c2.05-1.17,4.62-1.28,5.85,0,3.08,3.22,6.67,2.56,9.24.88a9.62,9.62,0,0,1,6.53-1.71c3.72,3.4,6.29,3.89,9.89,1.92,1.5-.82,3-1.6,4.75-2.52C54.73,37.73,54.7,37.1,54.64,36Z"/></svg>