<svg id="Capa_1" data-name="Capa 1" xmlns="http://www.w3.org/2000/svg" viewBox="0 0 60 60"><title>Mesa de trabajo 2 copia 9</title><path d="M30.82,40.43H35.5c0-.3,0-.5,0-.69,0-3.36,0-6.72,0-10.08a.75.75,0,0,0-.6-.86C33,28.12,31,27.41,29,26.67l2.3-3.49c1.25.93,2.47,1.8,3.67,2.71a1.06,1.06,0,0,0,1.1.19c2.55-.83,5.11-1.62,7.65-2.47a1.29,1.29,0,0,0,.7-.68,2.75,2.75,0,0,0-.55-3.13,1,1,0,0,0-1.08-.29c-2,.55-3.91,1.08-5.87,1.57a1.2,1.2,0,0,1-.9-.18c-1.79-1.36-3.55-2.77-5.35-4.13a2.22,2.22,0,0,0-1.21-.43c-2.61-.06-5.23-.06-7.84-.11a2.38,2.38,0,0,1-1.18-.37c-2-1.22-3.91-2.49-5.87-3.74a2.1,2.1,0,0,0-3.14,1.56A2.38,2.38,0,0,0,12.53,16c2.12,1.34,4.17,2.76,6.28,4.12a2.52,2.52,0,0,0,1.18.37c1.34.1,2.68.14,4.16.2l-1,1.68a27,27,0,0,1-1.48,2.42,3.73,3.73,0,0,0-.61,2.8c.21,2,.32,4.05.52,6.07a.92.92,0,0,1-.64,1.06c-2.18,1.07-4.35,2.17-6.53,3.25-1.2.61-1.23.66-1,2.21.52,0,1.05,0,1.58,0,1.62.06,3.25.15,4.87.18a2,2,0,0,0,1-.26c1.52-.87,3-1.79,4.55-2.66a1,1,0,0,0,.61-1c0-1.89,0-3.78,0-5.76.24.06.43.1.6.16,1.2.4,2.38.84,3.59,1.21a.71.71,0,0,1,.57.82c0,2.25,0,4.5,0,6.76Z"/><path d="M54.64,36.93a6.38,6.38,0,0,0-.57.32,20.41,20.41,0,0,1-9.31,3.17,132.77,132.77,0,0,1-22.2.76L6.15,40.71H5.4A3.16,3.16,0,0,0,6.67,44a17.56,17.56,0,0,0,3.61,1.78,37.41,37.41,0,0,0,9.63,1.62,82.31,82.31,0,0,0,19.2-.94,39.91,39.91,0,0,0,10.41-3A8.5,8.5,0,0,0,54.64,36.93Z"/><path d="M35.05,7.5a4.83,4.83,0,1,0,4.84,4.87A4.82,4.82,0,0,0,35.05,7.5Z"/><path d="M8.27,52.5a25.49,25.49,0,0,0,6.41-.74,6.46,6.46,0,0,0,3.93-3.57l-6.22-.9a.47.47,0,0,0,0,.21A2.75,2.75,0,0,1,11,50.62C10.17,51.24,9.3,51.79,8.27,52.5Z"/></svg>