<svg id="Capa_1" data-name="Capa 1" xmlns="http://www.w3.org/2000/svg" viewBox="0 0 60 60"><title>Mesa de trabajo 2 copia 11</title><path d="M26.32,28.31c-2,.69-3.95,1.32-5.84,2-1.67.59-2.41.35-3.07-1.28-.79-1.92-1.48-3.88-2.16-5.85a2.09,2.09,0,0,1,.88-2.63,8.39,8.39,0,0,0,1.49-2.12c.24.22.87.58.83.77-.67,2.71,1.33,4.64,1.9,7.23,3.13-1.08,6.12-2.11,9.13-3.13Q35.85,21.13,42.23,19c1.18-.4,2.21-.24,2.58,1.08s-.24,2-1.59,2.44c-2.83.88-5.61,1.94-8.6,3,1.71,4.53,2.14,9.58,6.65,12.66,2.19,1.49,2.31,2.57,1,4.86s-2.51,4.26-3.78,6.39a1.84,1.84,0,0,1-2.85.73,2.06,2.06,0,0,1-.72-3.06c.94-1.6,1.93-3.17,2.79-4.8.22-.42.25-1.3,0-1.54-.8-.71-1.46-2.14-2.89-1.3a3.66,3.66,0,0,0-1,1.57,1.7,1.7,0,0,0,0,1c1,5.19-2.14,9-4.43,13-.64,1.13-1.93,1.12-3,.47a1.84,1.84,0,0,1-.68-2.64,32,32,0,0,1,2.21-4c1.29-1.78,1.47-3.7,1.66-5.82C30,37.86,28.25,33.24,26.32,28.31Z"/><path d="M31.39,18.55a3.31,3.31,0,0,1-3.31,3.28,3.18,3.18,0,0,1-3.19-3.37,3.18,3.18,0,0,1,3.27-3.29A3.26,3.26,0,0,1,31.39,18.55Z"/><path d="M18.83,4.58c-2.56,1.41-3.7,5.92-1.64,7.94,1.55,1.52,1.38,2.79.8,4.42A3.3,3.3,0,0,0,18,18l.43.06a24.8,24.8,0,0,1,.91-3A2.07,2.07,0,0,1,20.48,14a5.92,5.92,0,0,0,4.06-5.75C24.35,4.93,21.52,3.1,18.83,4.58Z"/><circle cx="37.45" cy="11.08" r="1.7"/></svg>