<svg id="Capa_1" data-name="Capa 1" xmlns="http://www.w3.org/2000/svg" viewBox="0 0 60 60"><title>Mesa de trabajo 2 copia 10</title><path d="M27.2,24.37c-1.2,3.14-2.36,6.05-3.38,9A2,2,0,0,0,24.33,35c1.44,1.43,3,2.77,4.49,4.1A2.36,2.36,0,0,1,29.48,42c-1,2.63-2,5.25-3,7.87a6,6,0,0,1-.44.92c-.61,1-1.38,1.91-2.71,1.31a2.21,2.21,0,0,1-1.16-3c.69-2.08,1.42-4.14,2.25-6.16a1.72,1.72,0,0,0-.51-2.33c-2.32-2-4.55-4-6.85-6a5.17,5.17,0,0,1-1.28-5.85c.88-2.41,1.73-4.82,2.6-7.26-3.2-.7-3.43-.55-4.5,2.23-.56,1.46-1.22,2.9-1.87,4.33a1.71,1.71,0,0,1-2.4.9,1.62,1.62,0,0,1-1-2.34c1.15-2.68,2.27-5.39,3.55-8a2.32,2.32,0,0,1,1.75-1c3.49-.1,7-.18,10.48,0a5.32,5.32,0,0,1,2.84,1.41c1.53,1.32,2.86,2.85,4.33,4.24a2,2,0,0,0,1.24.32c1.46,0,2.93,0,4.39,0a3.24,3.24,0,0,0,2.69-1,2,2,0,0,0,.74-2.3C40,18,41.12,16.28,43,15.07a4,4,0,0,1,4.86.17A4.35,4.35,0,0,1,49,20.41a5.15,5.15,0,0,1-5.41,2.85,2.66,2.66,0,0,0-3.35,2.2,1.92,1.92,0,0,1-2.18,1.83c-2.25,0-4.51.07-6.76,0a3.47,3.47,0,0,1-1.79-.76A27.84,27.84,0,0,1,27.2,24.37Z"/><path d="M15.27,34.89c1.64,1.41,3.07,2.59,4.44,3.84.81.74.56,4.54-.45,5.52C16.57,46.86,13.82,49.42,11,52a2.28,2.28,0,0,1-3.23-.1,2.4,2.4,0,0,1-.11-3.49,36.24,36.24,0,0,1,4.75-4.29c2.14-1.49,3.29-3.21,2.85-5.89A22.06,22.06,0,0,1,15.27,34.89Z"/><path d="M53,30.81v2.72H40.41V52.29l-1.84.14V33.7l-3.45-.22c-.52-2.74-.49-2.78,2.11-2.78H50.91C51.62,30.71,52.32,30.78,53,30.81Z"/><path d="M27.69,7.42A4.39,4.39,0,0,1,32,12a4.36,4.36,0,0,1-4.41,4.33A4.55,4.55,0,0,1,23,11.93,4.61,4.61,0,0,1,27.69,7.42Z"/></svg>